# xmcd CD database file
#
# Track frame offsets:
#	150
#	12775
#	27437
#	40012
#	53575
#	65525
#	77175
#	87012
#	101387
#	113350
#	122412
#	135337
#	148425
#	157487
#	169812
#	181325
#	194650
#	207750
#	217775
#	230950
#
# Disc length: 3232 seconds
#
# Revision: 2
# Processed by: cddbd v1.4PL0 Copyright (c) Steve Scherf et al.
# Submitted via: CDex 1.40Beta4
#
DISCID=110c9e14
DTITLE=Frankie's Greatest Hits - Frankie Laine
DYEAR=1900
DGENRE=Country
TTITLE0=That's My Desire
TTITLE1=Jealousy
TTITLE2=The Cry of the Wild Goose
TTITLE3=That Lucky Old Sun (Just Rolls Around Heaven All Day)
TTITLE4=High Noon (Do Not Forsake Me)
TTITLE5=Rose, Rose I Love You
TTITLE6=I Believe
TTITLE7=Jezebel
TTITLE8=In the Cool, Cool, Cool of the Evening
TTITLE9=Hambone
TTITLE10=Dream a Little Dream of Me
TTITLE11=Neverless (I'm in Love With You)
TTITLE12=Sugarbush
TTITLE13=If I Were a Bell
TTITLE14=Love is a Golden Ring
TTITLE15=Granada
TTITLE16=Mam'selle
TTITLE17=Tell Me a Story
TTITLE18=Rain, Rain, Rain
TTITLE19=Mule Train
EXTD=ID3G:   2
EXTT0=
EXTT1=
EXTT2=
EXTT3=
EXTT4=
EXTT5=
EXTT6=
EXTT7=
EXTT8=with Jo Stafford\n\n
EXTT9=with Jo Stafford\n\n
EXTT10=
EXTT11=
EXTT12=with Doris Day\n\n
EXTT13=
EXTT14=
EXTT15=
EXTT16=
EXTT17=with Jimmy Boyd\n\n
EXTT18=
EXTT19=
PLAYORDER=
